<svg width="140" height="76" viewBox="0 0 140 76" fill="none" xmlns="http://www.w3.org/2000/svg">
<path d="M22.813 8.544C22.813 9.33333 22.7597 10.2293 22.653 11.232C24.2103 11.0187 25.4157 10.88 26.269 10.816C26.973 7.33867 27.325 4.64 27.325 2.72L27.293 2.272C29.3837 1.61067 31.4637 1.28 33.533 1.28C33.6183 1.408 33.661 1.71733 33.661 2.208C33.661 3.424 33.1597 6.272 32.157 10.752C33.6077 10.8373 35.0583 11.0293 36.509 11.328V11.712C36.509 12.2453 36.477 12.6187 36.413 12.832C36.349 13.024 36.3063 13.1733 36.285 13.28C36.2637 13.3867 36.2103 13.5147 36.125 13.664C36.0397 13.792 35.9863 13.888 35.965 13.952C35.8797 14.1653 35.7623 14.3467 35.613 14.496C34.1197 14.0693 32.765 13.7707 31.549 13.6C30.909 16.6507 30.589 18.8053 30.589 20.064C30.589 20.4267 30.621 20.6827 30.685 20.832C30.749 20.96 30.9303 21.024 31.229 21.024C31.549 21.024 31.997 20.9173 32.573 20.704L33.277 22.336C31.101 23.7013 29.1703 24.384 27.485 24.384C25.373 24.384 24.317 23.328 24.317 21.216C24.317 20.128 24.7863 17.504 25.725 13.344C24.5943 13.408 23.453 13.536 22.301 13.728C21.6823 16.8427 20.637 19.4773 19.165 21.632C18.4183 22.7413 17.5223 23.6053 16.477 24.224C15.453 24.864 14.2903 25.184 12.989 25.184C11.709 25.184 10.6637 24.768 9.853 23.936C9.04233 23.0827 8.637 21.984 8.637 20.64C8.637 19.296 9.29833 17.8667 10.621 16.352C11.9437 14.816 13.9383 13.536 16.605 12.512C16.8183 11.232 16.925 9.93067 16.925 8.608C16.925 7.264 16.829 6.34667 16.637 5.856C16.445 5.36533 16.061 5.12 15.485 5.12C14.589 5.12 13.2557 5.74933 11.485 7.008L10.269 5.344C12.9997 2.912 15.6237 1.696 18.141 1.696C19.8903 1.696 21.1063 2.304 21.789 3.52C22.4717 4.71467 22.813 6.38933 22.813 8.544ZM11.101 20.352C11.101 20.8 11.229 21.1947 11.485 21.536C11.7623 21.8773 12.1143 22.048 12.541 22.048C13.3303 22.048 14.0663 21.3973 14.749 20.096C15.4317 18.7947 15.9543 17.12 16.317 15.072C14.7383 15.648 13.469 16.4587 12.509 17.504C11.5703 18.5493 11.101 19.4987 11.101 20.352ZM37.933 25.536C36.6957 25.536 35.597 25.12 34.637 24.288C33.677 23.456 33.197 22.368 33.197 21.024C33.197 19.04 34.2317 17.152 36.301 15.36C37.3037 14.4853 38.6157 13.76 40.237 13.184C41.8797 12.5867 43.693 12.2347 45.677 12.128C46.445 10.1867 47.4263 7.232 48.621 3.264C48.6423 3.17867 48.653 3.02933 48.653 2.816C48.653 2.58133 48.5463 2.38933 48.333 2.24V1.792C50.3383 1.45067 52.2477 1.28 54.061 1.28L56.493 1.408C56.7063 1.62133 56.9197 2.10133 57.133 2.848C57.3463 3.57333 57.485 4.544 57.549 5.76C57.613 6.976 57.6557 9.78133 57.677 14.176C60.0237 15.0933 62.125 16.2027 63.981 17.504C63.8743 17.9093 63.629 18.3147 63.245 18.72C62.8823 19.1253 62.541 19.4347 62.221 19.648L61.773 19.936C60.621 18.8267 59.2663 17.8347 57.709 16.96C57.8157 19.9467 58.221 21.44 58.925 21.44C59.1597 21.44 59.4157 21.3867 59.693 21.28L60.461 23.04C58.925 23.936 57.3143 24.384 55.629 24.384C52.941 24.384 51.597 22.7733 51.597 19.552V14.976C50.3383 14.72 49.1117 14.56 47.917 14.496C46.6583 17.7387 45.325 20.3093 43.917 22.208C42.2743 24.4267 40.2797 25.536 37.933 25.536ZM36.781 20.832C36.781 21.3653 36.909 21.8133 37.165 22.176C37.421 22.5387 37.805 22.72 38.317 22.72C39.0637 22.72 39.8317 22.272 40.621 21.376C41.4103 20.4587 42.189 19.2747 42.957 17.824C43.7463 16.3733 44.3117 15.2747 44.653 14.528C42.1357 14.8267 40.1943 15.6267 38.829 16.928C37.4637 18.2293 36.781 19.5307 36.781 20.832ZM51.597 11.104C51.597 7.60533 51.501 5.45067 51.309 4.64C51.2877 4.61867 51.2237 4.608 51.117 4.608C51.0103 4.608 50.9463 4.61867 50.925 4.64C50.8823 5.536 50.157 8.04267 48.749 12.16C49.581 12.224 50.5303 12.3413 51.597 12.512V11.104ZM65.8448 8.48C65.8448 8.07467 65.7914 7.776 65.6848 7.584C65.5994 7.392 65.3968 7.11467 65.0768 6.752V6.304C65.5034 6.048 66.1968 5.824 67.1568 5.632C68.1168 5.41867 68.9594 5.312 69.6848 5.312C70.8581 5.312 71.6368 5.36533 72.0208 5.472C72.1488 5.68533 72.2128 6.10133 72.2128 6.72C72.2128 7.33867 71.7434 9.46133 70.8048 13.088C71.3594 13.216 71.9354 13.28 72.5328 13.28C73.7061 13.28 74.5701 12.6933 75.1248 11.52C75.7008 10.3253 75.9888 8.98133 75.9888 7.488C75.9888 4.75733 74.2821 3.392 70.8688 3.392C68.2661 3.392 66.0794 3.808 64.3088 4.64C62.5381 5.45067 61.6528 6.45333 61.6528 7.648C61.6528 8.56533 62.2928 9.152 63.5728 9.408C63.5941 9.57867 63.6048 9.78133 63.6048 10.016C63.6048 11.1893 63.4128 12.0747 63.0288 12.672C62.0261 12.544 61.1194 12.1173 60.3087 11.392C59.4981 10.6667 59.0927 9.57867 59.0927 8.128C59.0927 5.888 60.2981 4.128 62.7088 2.848C65.1408 1.54667 68.0741 0.895998 71.5088 0.895998C74.9648 0.895998 77.5888 1.42933 79.3808 2.496C81.1941 3.54133 82.1008 5.14133 82.1008 7.296C82.1008 9.42933 81.3114 11.3173 79.7328 12.96C78.1541 14.6027 75.9994 15.424 73.2688 15.424C72.0954 15.424 71.1141 15.264 70.3248 14.944C69.3648 18.7413 68.7994 21.6427 68.6288 23.648C67.0928 24.0107 65.3648 24.192 63.4448 24.192C62.9328 24.192 62.5808 24.16 62.3888 24.096C62.4954 22.7733 63.0928 20.1493 64.1808 16.224C65.2901 12.2987 65.8448 9.71733 65.8448 8.48ZM85.8135 8.48C85.8135 8.07467 85.7602 7.776 85.6535 7.584C85.5682 7.392 85.3655 7.11467 85.0455 6.752V6.304C85.4722 6.048 86.1655 5.824 87.1255 5.632C88.0855 5.41867 88.9282 5.312 89.6535 5.312C90.8268 5.312 91.6055 5.36533 91.9895 5.472C92.1175 5.68533 92.1815 6.10133 92.1815 6.72C92.1815 7.33867 91.7122 9.46133 90.7735 13.088C91.3282 13.216 91.9042 13.28 92.5015 13.28C93.6748 13.28 94.5388 12.6933 95.0935 11.52C95.6695 10.3253 95.9575 8.98133 95.9575 7.488C95.9575 4.75733 94.2508 3.392 90.8375 3.392C88.2348 3.392 86.0482 3.808 84.2775 4.64C82.5068 5.45067 81.6215 6.45333 81.6215 7.648C81.6215 8.56533 82.2615 9.152 83.5415 9.408C83.5628 9.57867 83.5735 9.78133 83.5735 10.016C83.5735 11.1893 83.3815 12.0747 82.9975 12.672C81.9948 12.544 81.0882 12.1173 80.2775 11.392C79.4668 10.6667 79.0615 9.57867 79.0615 8.128C79.0615 5.888 80.2668 4.128 82.6775 2.848C85.1095 1.54667 88.0428 0.895998 91.4775 0.895998C94.9335 0.895998 97.5575 1.42933 99.3495 2.496C101.163 3.54133 102.07 5.14133 102.07 7.296C102.07 9.42933 101.28 11.3173 99.7015 12.96C98.1228 14.6027 95.9682 15.424 93.2375 15.424C92.0642 15.424 91.0828 15.264 90.2935 14.944C89.3335 18.7413 88.7682 21.6427 88.5975 23.648C87.0615 24.0107 85.3335 24.192 83.4135 24.192C82.9015 24.192 82.5495 24.16 82.3575 24.096C82.4642 22.7733 83.0615 20.1493 84.1495 16.224C85.2588 12.2987 85.8135 9.71733 85.8135 8.48ZM126.838 4.608C126.838 6.05867 126.284 7.86133 125.174 10.016C124.065 12.1493 122.678 14.016 121.014 15.616C120.46 18.304 119.862 20.5333 119.222 22.304C121.014 22.304 122.785 22.4427 124.534 22.72C124.534 23.68 124.214 24.704 123.574 25.792C121.761 25.3227 119.937 25.0453 118.102 24.96C116.076 29.0987 113.249 31.168 109.622 31.168C108.278 31.168 107.212 30.9013 106.422 30.368C105.654 29.8347 105.27 29.088 105.27 28.128C105.27 26.912 105.942 25.8027 107.286 24.8C108.63 23.7973 110.7 22.9973 113.494 22.4L114.006 20.608C111.809 21.8453 109.825 22.464 108.054 22.464C107.009 22.464 106.177 22.1973 105.558 21.664C104.961 21.1307 104.662 20.3947 104.662 19.456C104.662 18.5173 105.068 16.64 105.878 13.824C102.401 12.224 100.662 10.24 100.662 7.872C100.662 6.592 101.11 5.44 102.006 4.416C102.902 3.37067 103.98 2.592 105.238 2.08C106.497 1.54667 107.788 1.28 109.11 1.28C110.433 1.28 111.574 1.632 112.534 2.336C113.494 3.01867 113.974 3.98933 113.974 5.248C113.974 6.50667 113.462 8.72533 112.438 11.904C111.436 15.0613 110.934 16.9067 110.934 17.44C110.934 18.1227 111.276 18.464 111.958 18.464C112.662 18.464 113.601 18.0693 114.774 17.28L115.094 15.584C115.692 12.256 116.14 10.1227 116.438 9.184C116.737 8.224 117.014 7.36 117.27 6.592C117.548 5.824 117.814 5.22667 118.07 4.8C118.348 4.352 118.668 3.872 119.03 3.36C119.414 2.848 119.809 2.464 120.214 2.208C121.196 1.58933 122.241 1.28 123.35 1.28C124.481 1.28 125.345 1.58933 125.942 2.208C126.54 2.80533 126.838 3.60533 126.838 4.608ZM106.55 11.328C107.318 8.896 107.702 7.09333 107.702 5.92C107.702 4.74667 107.308 4.16 106.518 4.16C105.729 4.16 104.982 4.48 104.278 5.12C103.596 5.76 103.254 6.58133 103.254 7.584C103.254 9.20533 104.353 10.4533 106.55 11.328ZM108.566 27.552C108.566 27.9787 108.854 28.192 109.43 28.192C110.006 28.192 110.604 27.8827 111.222 27.264C111.841 26.6667 112.385 25.888 112.854 24.928C111.574 25.1627 110.54 25.536 109.75 26.048C108.961 26.5813 108.566 27.0827 108.566 27.552ZM124.022 3.968C123.681 3.968 123.372 4.48 123.094 5.504C122.668 7.14667 122.262 9.088 121.878 11.328C122.497 10.3893 123.062 9.22667 123.574 7.84C124.086 6.432 124.342 5.44 124.342 4.864C124.342 4.26667 124.236 3.968 124.022 3.968ZM13.0989 57.248C13.0349 56.992 13.0029 56.6933 13.0029 56.352C13.0029 55.9893 13.0775 55.5093 13.2269 54.912C13.4189 54.912 13.7815 54.8587 14.3149 54.752C14.8695 54.6453 15.4455 54.1973 16.0429 53.408C16.6615 52.6187 16.9709 51.6373 16.9709 50.464C16.9709 48.416 15.2109 47.392 11.6909 47.392C10.3042 47.392 8.92821 47.5733 7.56288 47.936C6.21888 48.2773 5.07754 48.7893 4.13888 49.472C3.20021 50.1333 2.73088 50.88 2.73088 51.712C2.73088 52.6507 3.37088 53.248 4.65088 53.504C4.67221 53.6533 4.68288 53.856 4.68288 54.112C4.68288 55.0933 4.49088 55.9787 4.10688 56.768C3.16821 56.6827 2.28288 56.2667 1.45087 55.52C0.597542 54.7733 0.170875 53.664 0.170875 52.192C0.170875 50.6987 0.800208 49.3653 2.05888 48.192C4.44821 45.9947 8.00021 44.896 12.7149 44.896C19.6269 44.896 23.0829 46.624 23.0829 50.08C23.0829 52.9387 21.2802 54.9333 17.6749 56.064C18.9549 56.192 20.0749 56.6613 21.0349 57.472C23.0829 56.896 25.0029 56.5333 26.7949 56.384C27.0935 56.9813 27.2429 57.5573 27.2429 58.112C27.2429 58.6453 27.1789 59.1573 27.0509 59.648C26.5602 59.584 25.9629 59.552 25.2589 59.552C24.5762 59.552 23.7015 59.6373 22.6349 59.808C22.8695 60.448 22.9869 61.1307 22.9869 61.856C22.9869 63.968 22.3255 65.792 21.0029 67.328C19.6802 68.864 18.0055 69.632 15.9789 69.632C14.4429 69.632 13.2695 69.248 12.4589 68.48C11.6695 67.7333 11.2749 66.752 11.2749 65.536C11.2749 64.2987 11.7122 63.0827 12.5869 61.888C13.4829 60.672 14.7095 59.7227 16.2669 59.04C15.9042 57.8453 15.0082 57.248 13.5789 57.248H13.0989ZM6.92288 52.416C6.92288 52.032 6.86954 51.744 6.76288 51.552C6.67754 51.36 6.47488 51.0827 6.15488 50.72V50.304C6.58154 50.048 7.27488 49.824 8.23488 49.632C9.19488 49.4187 10.0375 49.312 10.7629 49.312C11.9362 49.312 12.7149 49.3653 13.0989 49.472C13.2269 49.6853 13.2909 50.1227 13.2909 50.784C13.2909 51.4453 12.7362 53.888 11.6269 58.112C10.5389 62.336 9.89888 65.5147 9.70688 67.648C8.17088 68.0107 6.44288 68.192 4.52288 68.192C4.01088 68.192 3.65888 68.16 3.46688 68.096C3.57354 66.7733 4.17088 64.1493 5.25888 60.224C6.36821 56.2773 6.92288 53.6747 6.92288 52.416ZM14.9229 66.72C15.4775 66.72 15.9362 66.2933 16.2989 65.44C16.6615 64.5653 16.8429 63.5093 16.8429 62.272C16.8429 61.9307 16.8322 61.6213 16.8109 61.344C15.9362 61.6213 15.1895 62.1333 14.5709 62.88C13.9735 63.6053 13.6749 64.288 13.6749 64.928C13.6749 66.1227 14.0909 66.72 14.9229 66.72ZM29.9174 69.536C28.68 69.536 27.5814 69.12 26.6214 68.288C25.6614 67.456 25.1814 66.368 25.1814 65.024C25.1814 63.04 26.216 61.152 28.2854 59.36C29.288 58.4853 30.6 57.76 32.2214 57.184C33.864 56.5867 35.6774 56.2347 37.6614 56.128C38.4294 54.1867 39.4107 51.232 40.6054 47.264C40.6267 47.1787 40.6374 47.0293 40.6374 46.816C40.6374 46.5813 40.5307 46.3893 40.3174 46.24V45.792C42.3227 45.4507 44.232 45.28 46.0454 45.28L48.4774 45.408C48.6907 45.6213 48.904 46.1013 49.1174 46.848C49.3307 47.5733 49.4694 48.544 49.5334 49.76C49.5974 50.976 49.64 53.7813 49.6614 58.176C52.008 59.0933 54.1094 60.2027 55.9654 61.504C55.8587 61.9093 55.6134 62.3147 55.2294 62.72C54.8667 63.1253 54.5254 63.4347 54.2054 63.648L53.7574 63.936C52.6054 62.8267 51.2507 61.8347 49.6934 60.96C49.8 63.9467 50.2054 65.44 50.9094 65.44C51.144 65.44 51.4 65.3867 51.6774 65.28L52.4454 67.04C50.9094 67.936 49.2987 68.384 47.6134 68.384C44.9254 68.384 43.5814 66.7733 43.5814 63.552V58.976C42.3227 58.72 41.096 58.56 39.9014 58.496C38.6427 61.7387 37.3094 64.3093 35.9014 66.208C34.2587 68.4267 32.264 69.536 29.9174 69.536ZM28.7654 64.832C28.7654 65.3653 28.8934 65.8133 29.1494 66.176C29.4054 66.5387 29.7894 66.72 30.3014 66.72C31.048 66.72 31.816 66.272 32.6054 65.376C33.3947 64.4587 34.1734 63.2747 34.9414 61.824C35.7307 60.3733 36.296 59.2747 36.6374 58.528C34.12 58.8267 32.1787 59.6267 30.8134 60.928C29.448 62.2293 28.7654 63.5307 28.7654 64.832ZM43.5814 55.104C43.5814 51.6053 43.4854 49.4507 43.2934 48.64C43.272 48.6187 43.208 48.608 43.1014 48.608C42.9947 48.608 42.9307 48.6187 42.9094 48.64C42.8667 49.536 42.1414 52.0427 40.7334 56.16C41.5654 56.224 42.5147 56.3413 43.5814 56.512V55.104ZM75.4351 47.584C75.4351 49.2267 74.7418 50.8693 73.3551 52.512C71.9898 54.1547 70.1871 55.6587 67.9471 57.024C68.4378 57.5787 69.0351 58.752 69.7391 60.544C70.4431 62.336 70.9658 63.5947 71.3071 64.32C71.6485 65.0453 71.9045 65.6 72.0751 65.984C72.2671 66.368 72.5338 66.88 72.8751 67.52C73.4725 68.6507 73.9951 69.216 74.4431 69.216C74.6778 69.216 74.8805 69.1733 75.0511 69.088L75.6591 70.784C74.5071 71.6373 73.1098 72.064 71.4671 72.064C69.8245 72.064 68.6618 71.7227 67.9791 71.04C67.3178 70.3787 66.7418 68.9707 66.2511 66.816C66.2298 66.7307 66.0058 65.6 65.5791 63.424C65.1525 61.248 64.8005 59.7547 64.5231 58.944H64.2991C63.7445 58.944 63.2751 58.72 62.8911 58.272C62.7205 58.144 62.6351 57.8133 62.6351 57.28C62.6351 56.7253 62.6671 56.3307 62.7311 56.096C62.8165 55.84 63.0085 55.6267 63.3071 55.456C63.6058 55.2853 63.9791 55.2 64.4271 55.2C64.8965 55.2 65.3018 55.2853 65.6431 55.456C66.7525 54.56 67.6485 53.632 68.3311 52.672C68.8858 51.6693 69.1631 50.5173 69.1631 49.216C69.1631 48.5973 69.0991 47.9573 68.9711 47.296C69.8245 46.784 70.6885 46.3893 71.5631 46.112C72.4591 45.8133 73.1311 45.6427 73.5791 45.6L74.2511 45.536C74.5925 45.6853 74.8698 45.9733 75.0831 46.4C75.3178 46.8053 75.4351 47.2 75.4351 47.584ZM57.4831 48.288C57.4831 47.9467 57.4298 47.6907 57.3231 47.52C57.2378 47.328 57.0565 47.072 56.7791 46.752V46.304C57.2058 46.048 57.8885 45.824 58.8271 45.632C59.7871 45.4187 60.6298 45.312 61.3551 45.312C62.3151 45.312 63.0831 45.3653 63.6591 45.472C63.7871 45.7067 63.8511 46.0373 63.8511 46.464C63.8511 48.1493 63.2218 51.616 61.9631 56.864C60.7258 62.0907 60.0218 65.6853 59.8511 67.648C58.2725 68.0107 56.5231 68.192 54.6031 68.192C54.1338 68.192 53.8031 68.16 53.6111 68.096C53.7178 66.752 54.3898 63.4667 55.6271 58.24C56.8645 53.0133 57.4831 49.696 57.4831 48.288ZM92.5459 46.24C91.9272 46.24 91.2979 46.3573 90.6579 46.592C91.5539 47.36 92.0019 48.3093 92.0019 49.44C92.0019 50.5493 91.6712 51.552 91.0099 52.448C90.3699 53.344 89.5699 53.792 88.6099 53.792C87.6499 53.792 86.8819 53.4933 86.3059 52.896C85.7512 52.2987 85.4739 51.5093 85.4739 50.528C85.4739 49.5467 85.7725 48.6293 86.3699 47.776C85.5805 47.9893 84.9299 48.4907 84.4179 49.28C83.9059 50.048 83.6499 51.0187 83.6499 52.192C83.6499 53.3653 83.8205 54.3573 84.1619 55.168C84.9085 55.0613 85.6872 55.008 86.4979 55.008C87.3299 55.008 88.0872 55.2213 88.7699 55.648C89.4739 56.0533 89.8259 56.6293 89.8259 57.376C89.8259 58.1227 89.5165 58.7627 88.8979 59.296C88.2792 59.808 87.4579 60.064 86.4339 60.064C85.4099 60.064 84.2045 59.6587 82.8179 58.848C82.0925 59.808 81.7299 60.7893 81.7299 61.792C81.7299 62.7733 82.0179 63.5413 82.5939 64.096C83.1699 64.6507 83.9272 64.928 84.8659 64.928C86.8072 64.928 88.6952 63.9253 90.5299 61.92L91.9059 63.072C91.4792 63.7547 90.9139 64.4373 90.2099 65.12C89.5272 65.8027 88.8659 66.3573 88.2259 66.784C87.5859 67.2107 86.7645 67.584 85.7619 67.904C84.7805 68.224 83.7672 68.384 82.7219 68.384C80.7379 68.384 79.0525 67.8933 77.6659 66.912C76.2792 65.9093 75.5859 64.3733 75.5859 62.304C75.5859 61.088 75.9805 59.9893 76.7699 59.008C77.5805 58.0053 78.6472 57.1733 79.9699 56.512C78.7965 55.168 78.2099 53.664 78.2099 52C78.2099 49.888 79.0312 48.2453 80.6739 47.072C82.3165 45.8773 84.2152 45.28 86.3699 45.28C87.1805 45.28 87.9165 45.376 88.5779 45.568C90.0499 44.5867 91.6179 44.096 93.2819 44.096C94.9672 44.096 96.1725 44.5333 96.8979 45.408C96.8552 46.1547 96.6205 46.7733 96.1939 47.264L95.9699 47.52C95.1805 46.6667 94.0392 46.24 92.5459 46.24ZM89.4739 49.952C89.4739 49.0133 89.1539 48.352 88.5139 47.968C87.8952 48.6933 87.5859 49.504 87.5859 50.4C87.5859 51.2747 87.8739 51.712 88.4499 51.712C88.7485 51.712 88.9939 51.552 89.1859 51.232C89.3779 50.8907 89.4739 50.464 89.4739 49.952ZM86.5619 56.704C86.1352 56.704 85.6979 56.7893 85.2499 56.96C85.7192 57.6 86.2632 57.92 86.8819 57.92C87.5005 57.92 87.8099 57.728 87.8099 57.344C87.8099 56.9173 87.3939 56.704 86.5619 56.704ZM102.195 56.992C102.281 56.736 102.473 56.5227 102.771 56.352C103.07 56.1813 103.443 56.096 103.891 56.096C104.339 56.096 104.734 56.1813 105.075 56.352C106.611 55.1573 107.379 53.4827 107.379 51.328C107.379 49.9627 106.974 48.9707 106.163 48.352C105.353 47.712 104.094 47.392 102.387 47.392C99.742 47.392 97.5127 47.808 95.6994 48.64C93.886 49.4507 92.9794 50.4533 92.9794 51.648C92.9794 52.1387 93.182 52.5333 93.5874 52.832C94.014 53.1307 94.4514 53.3227 94.8994 53.408C94.9207 53.6 94.9314 53.8347 94.9314 54.112C94.9314 55.264 94.7394 56.1173 94.3554 56.672C93.3527 56.544 92.446 56.1067 91.6354 55.36C90.8247 54.6133 90.4194 53.536 90.4194 52.128C90.4194 49.9093 91.646 48.1493 94.0994 46.848C96.574 45.5467 99.7207 44.896 103.539 44.896C106.59 44.896 109.001 45.4293 110.771 46.496C112.542 47.5627 113.427 49.12 113.427 51.168C113.427 52.6187 112.862 53.92 111.731 55.072C110.622 56.224 109.278 57.1733 107.699 57.92C108.467 58.6667 109.534 60.736 110.899 64.128C112.265 67.52 113.331 69.216 114.099 69.216C114.249 69.216 114.451 69.1733 114.707 69.088L115.315 70.784C114.057 71.6373 112.638 72.064 111.059 72.064C109.502 72.064 108.371 71.7227 107.667 71.04C106.985 70.3573 106.398 68.9493 105.907 66.816C105.822 66.4533 105.683 65.7813 105.491 64.8C105.001 62.4747 104.606 60.8213 104.307 59.84H103.763C103.209 59.84 102.739 59.616 102.355 59.168C102.185 59.04 102.099 58.7093 102.099 58.176C102.099 57.6213 102.131 57.2267 102.195 56.992ZM96.6914 52.416C96.6914 52.0107 96.638 51.712 96.5314 51.52C96.446 51.328 96.2434 51.0507 95.9234 50.688V50.304C96.35 50.048 97.0434 49.824 98.0034 49.632C98.9634 49.4187 99.806 49.312 100.531 49.312C101.705 49.312 102.483 49.3653 102.867 49.472C102.995 49.6853 103.059 50.1227 103.059 50.784C103.059 51.4453 102.505 53.8987 101.395 58.144C100.307 62.368 99.6674 65.536 99.4754 67.648C97.9394 68.0107 96.2114 68.192 94.2914 68.192C93.7794 68.192 93.4274 68.16 93.2354 68.096C93.342 66.7733 93.9394 64.1387 95.0274 60.192C96.1367 56.2453 96.6914 53.6533 96.6914 52.416ZM139.823 48.608C139.823 50.0587 139.268 51.8613 138.159 54.016C137.049 56.1493 135.663 58.016 133.999 59.616C133.444 62.304 132.847 64.5333 132.207 66.304C133.999 66.304 135.769 66.4427 137.519 66.72C137.519 67.68 137.199 68.704 136.559 69.792C134.745 69.3227 132.921 69.0453 131.087 68.96C129.06 73.0987 126.233 75.168 122.607 75.168C121.263 75.168 120.196 74.9013 119.407 74.368C118.639 73.8347 118.255 73.088 118.255 72.128C118.255 70.912 118.927 69.8027 120.271 68.8C121.615 67.7973 123.684 66.9973 126.479 66.4L126.991 64.608C124.793 65.8453 122.809 66.464 121.039 66.464C119.993 66.464 119.161 66.1973 118.543 65.664C117.945 65.1307 117.647 64.3947 117.647 63.456C117.647 62.5173 118.052 60.64 118.863 57.824C115.385 56.224 113.647 54.24 113.647 51.872C113.647 50.592 114.095 49.44 114.991 48.416C115.887 47.3707 116.964 46.592 118.223 46.08C119.481 45.5467 120.772 45.28 122.095 45.28C123.417 45.28 124.559 45.632 125.519 46.336C126.479 47.0187 126.959 47.9893 126.959 49.248C126.959 50.5067 126.447 52.7253 125.423 55.904C124.42 59.0613 123.919 60.9067 123.919 61.44C123.919 62.1227 124.26 62.464 124.943 62.464C125.647 62.464 126.585 62.0693 127.759 61.28L128.079 59.584C128.676 56.256 129.124 54.1227 129.423 53.184C129.721 52.224 129.999 51.36 130.255 50.592C130.532 49.824 130.799 49.2267 131.055 48.8C131.332 48.352 131.652 47.872 132.015 47.36C132.399 46.848 132.793 46.464 133.199 46.208C134.18 45.5893 135.225 45.28 136.335 45.28C137.465 45.28 138.329 45.5893 138.927 46.208C139.524 46.8053 139.823 47.6053 139.823 48.608ZM119.535 55.328C120.303 52.896 120.687 51.0933 120.687 49.92C120.687 48.7467 120.292 48.16 119.503 48.16C118.713 48.16 117.967 48.48 117.263 49.12C116.58 49.76 116.239 50.5813 116.239 51.584C116.239 53.2053 117.337 54.4533 119.535 55.328ZM121.551 71.552C121.551 71.9787 121.839 72.192 122.415 72.192C122.991 72.192 123.588 71.8827 124.207 71.264C124.825 70.6667 125.369 69.888 125.839 68.928C124.559 69.1627 123.524 69.536 122.735 70.048C121.945 70.5813 121.551 71.0827 121.551 71.552ZM137.007 47.968C136.665 47.968 136.356 48.48 136.079 49.504C135.652 51.1467 135.247 53.088 134.863 55.328C135.481 54.3893 136.047 53.2267 136.559 51.84C137.071 50.432 137.327 49.44 137.327 48.864C137.327 48.2667 137.22 47.968 137.007 47.968Z" fill="#010101"/>
</svg>
