<svg width="24" height="24" viewBox="0 0 24 24" fill="none" xmlns="http://www.w3.org/2000/svg">
<path d="M18 10.5V19.125C18 19.3712 17.9515 19.615 17.8573 19.8425C17.763 20.07 17.6249 20.2767 17.4508 20.4508C17.2767 20.6249 17.07 20.763 16.8425 20.8573C16.615 20.9515 16.3712 21 16.125 21H4.875C4.37772 21 3.90081 20.8025 3.54917 20.4508C3.19754 20.0992 3 19.6223 3 19.125V7.875C3 7.37772 3.19754 6.90081 3.54917 6.54917C3.90081 6.19754 4.37772 6 4.875 6H12.7256" stroke="#232321" stroke-width="1.5" stroke-linecap="round" stroke-linejoin="round"/>
<path d="M21.5424 2.51192L21.5424 2.51188C21.476 2.43896 21.3956 2.38026 21.3059 2.33931C21.2162 2.29836 21.1191 2.27603 21.0206 2.27365C20.922 2.27127 20.824 2.2889 20.7324 2.32548C20.6409 2.36206 20.5577 2.41682 20.4879 2.48645L20.4878 2.48647L19.908 3.06346L21.5424 2.51192ZM21.5424 2.51192C21.8062 2.80059 21.7811 3.25133 21.5033 3.52858L20.9381 4.09106L20.938 4.09114C20.9053 4.12395 20.8665 4.15 20.8237 4.16777C20.781 4.18554 20.7351 4.19468 20.6888 4.19468C20.6425 4.19468 20.5967 4.18554 20.5539 4.16777C20.5111 4.15 20.4723 4.12395 20.4396 4.09114L20.4396 4.09108M21.5424 2.51192L20.4396 4.09108M20.4396 4.09108L19.908 3.56048C19.8422 3.49455 19.8052 3.40517 19.8052 3.31197C19.8052 3.21879 19.8421 3.12942 19.908 3.0635L20.4396 4.09108ZM10.2738 12.6822L10.2738 12.6822L18.7357 4.23536C18.8104 4.16088 18.9115 4.11906 19.017 4.11906C19.1225 4.11906 19.2236 4.16087 19.2983 4.23532C19.2983 4.23533 19.2983 4.23535 19.2984 4.23536L19.7646 4.704C19.8385 4.77859 19.8799 4.87929 19.8799 4.98423C19.8799 5.08916 19.8385 5.18986 19.7647 5.26446C19.7647 5.26446 19.7647 5.26446 19.7646 5.26447L11.3178 13.7272L11.3178 13.7272C11.2696 13.7757 11.2097 13.8109 11.1438 13.8295L11.1438 13.8295L11.1427 13.8298L9.97833 14.2211C9.95085 14.2292 9.92171 14.2297 9.89395 14.2227C9.86606 14.2156 9.8406 14.2011 9.82025 14.1808C9.79991 14.1604 9.78543 14.1349 9.77835 14.1071C9.77131 14.0793 9.77185 14.0502 9.77991 14.0227L10.1712 12.8573L10.1712 12.8573L10.1715 12.8562C10.1901 12.7904 10.2253 12.7305 10.2738 12.6822Z" fill="#232321" stroke="#232321" stroke-width="0.046875"/>
</svg>
