<svg width="32" height="28" viewBox="0 0 32 28" fill="none" xmlns="http://www.w3.org/2000/svg">
<rect x="32" width="27.2" height="32" rx="4" transform="rotate(90 32 0)" fill="#232321" fill-opacity="0.05"/>
<path opacity="0.5" d="M9.6 15.2C9.28355 15.2 8.97421 15.1062 8.71109 14.9304C8.44797 14.7545 8.24289 14.5047 8.12179 14.2123C8.00069 13.9199 7.96901 13.5982 8.03074 13.2879C8.09248 12.9775 8.24487 12.6924 8.46863 12.4686C8.69239 12.2449 8.97749 12.0925 9.28786 12.0307C9.59823 11.969 9.91993 12.0007 10.2123 12.1218C10.5047 12.2429 10.7545 12.448 10.9304 12.7111C11.1062 12.9742 11.2 13.2836 11.2 13.6C11.2 14.0243 11.0314 14.4313 10.7314 14.7314C10.4313 15.0314 10.0243 15.2 9.6 15.2ZM20.8 13.6C20.8 13.9165 20.8938 14.2258 21.0696 14.4889C21.2455 14.752 21.4953 14.9571 21.7877 15.0782C22.0801 15.1993 22.4018 15.231 22.7121 15.1693C23.0225 15.1075 23.3076 14.9551 23.5314 14.7314C23.7551 14.5076 23.9075 14.2225 23.9693 13.9121C24.031 13.6018 23.9993 13.2801 23.8782 12.9877C23.7571 12.6953 23.552 12.4455 23.2889 12.2696C23.0258 12.0938 22.7164 12 22.4 12C21.9757 12 21.5687 12.1686 21.2686 12.4686C20.9686 12.7687 20.8 13.1757 20.8 13.6ZM17.6 13.6C17.6 13.2836 17.5062 12.9742 17.3304 12.7111C17.1545 12.448 16.9047 12.2429 16.6123 12.1218C16.3199 12.0007 15.9982 11.969 15.6879 12.0307C15.3775 12.0925 15.0924 12.2449 14.8686 12.4686C14.6449 12.6924 14.4925 12.9775 14.4307 13.2879C14.369 13.5982 14.4007 13.9199 14.5218 14.2123C14.6429 14.5047 14.848 14.7545 15.1111 14.9304C15.3742 15.1062 15.6835 15.2 16 15.2C16.4243 15.2 16.8313 15.0314 17.1314 14.7314C17.4314 14.4313 17.6 14.0243 17.6 13.6Z" fill="#232321"/>
</svg>
