<svg width="368" height="63" viewBox="0 0 368 63" fill="none" xmlns="http://www.w3.org/2000/svg">
<path d="M36.6297 49.2106C34.4111 49.2203 32.7923 48.6514 31.7735 47.5039C30.7549 46.3137 30.2498 44.7586 30.2584 42.8386C30.2672 40.876 31.2507 35.6238 33.2088 27.0822C29.5818 27.1834 26.679 27.5374 24.5003 28.1442C23.2361 34.1655 21.3142 39.3791 18.7345 43.7849C17.4019 46.0093 15.7941 47.7656 13.9111 49.0538C12.0279 50.3847 9.97692 51.0549 7.75827 51.0646C5.53963 51.0743 3.72965 50.3356 2.32834 48.8484C0.926849 47.4039 0.231445 45.487 0.242135 43.0977C0.257406 39.6844 1.67971 36.4783 4.50905 33.4793C7.33857 30.4377 10.9121 27.9902 15.2296 26.1367C15.6311 22.2098 15.8375 19.009 15.8485 16.5343C15.8598 14.017 15.6117 12.2475 15.1043 11.2257C14.6396 10.2038 13.8739 9.69513 12.8072 9.69979C11.7405 9.70445 10.3307 10.1159 8.5778 10.9342C6.82505 11.7099 5.17772 12.7624 3.63581 14.0917L2.04614 11.7947C3.59052 9.9107 5.85976 8.13018 8.85384 6.45315C11.8481 4.73346 14.7319 3.86756 17.5052 3.85545C23.0945 3.83104 25.8701 8.06413 25.8322 16.5547C25.8232 18.56 25.6417 20.9714 25.2878 23.7889C28.0636 23.2221 31.0305 22.8465 34.1886 22.662C35.6694 15.9144 36.4186 10.578 36.4361 6.6527C36.4394 5.92737 36.3992 5.3729 36.3156 4.98927C39.7348 3.65172 43.1724 2.97539 46.6284 2.9603C46.7548 3.30107 46.8162 3.89812 46.8124 4.75144C46.8005 7.39675 45.7282 13.4386 43.5953 22.877C48.7136 23.2386 52.2099 23.7353 54.0844 24.3671C54.1263 24.5376 54.1462 24.8575 54.1441 25.3268C54.1401 26.2228 53.7297 27.3552 52.9129 28.7241C50.1434 27.8829 46.7326 27.3431 42.6805 27.1048C41.1551 34.2793 40.3876 38.9332 40.3781 41.0665C40.3687 43.1571 40.876 44.2002 41.9 44.1957C42.4547 44.1933 43.0525 44.084 43.6934 43.8679L44.6423 46.3597C41.5619 48.2504 38.891 49.2007 36.6297 49.2106ZM7.14577 44.9235C8.51109 44.9175 9.86032 43.7383 11.1935 41.3859C12.5266 39.0335 13.6089 35.5302 14.4404 30.876C12.0465 31.9105 9.86337 33.5199 7.89099 35.7045C5.91861 37.889 4.92793 39.984 4.91896 41.9893C4.91476 42.9279 5.12485 43.6523 5.54922 44.1625C6.01626 44.6724 6.54844 44.9261 7.14577 44.9235ZM68.8659 21.8066C68.9516 21.7209 69.1888 21.1652 69.5773 20.1396C71.5827 20.1308 74.268 20.7164 77.6332 21.8963C76.5507 25.4423 75.6808 29.158 75.0234 33.0434C74.3663 36.8862 74.034 39.6395 74.0265 41.3035C74.0193 42.9248 74.1863 43.7348 74.5276 43.7333C74.7836 43.7321 75.7241 43.3227 77.349 42.505L78.1188 42.1176L79.2607 44.3526C78.8752 44.6956 78.3613 45.1245 77.719 45.6393C77.1194 46.1539 75.9643 46.8629 74.2536 47.7663C72.5431 48.6271 71.0052 49.0605 69.6399 49.0665C66.9946 49.078 65.464 47.8901 65.048 45.5026C62.3067 47.9038 59.8267 49.1093 57.608 49.119C55.432 49.1285 53.5799 48.2833 52.0515 46.5833C50.5658 44.8832 49.8312 42.1985 49.8476 38.5292C49.8732 32.8119 51.0667 28.3055 53.428 25.01C55.7896 21.6717 58.6343 19.9954 61.9623 19.9808C64.3516 19.9704 66.6528 20.579 68.8659 21.8066ZM61.4723 43.6623C62.4963 43.6578 63.6501 43.2474 64.9337 42.4312C65.2593 36.414 66.2886 30.4576 68.0216 24.5622C66.7441 24.0132 65.6573 23.7406 64.7613 23.7445C63.2254 23.7512 61.8959 25.2716 60.7731 28.3058C59.693 31.2971 59.1449 34.606 59.1287 38.2327C59.1125 41.8593 59.8937 43.6692 61.4723 43.6623ZM78.5051 62.5953C78.2941 62.0843 78.1925 60.9541 78.2003 59.2048C78.2081 57.4555 79.0611 52.7585 80.7593 45.114C82.4576 37.4268 83.316 31.5139 83.3346 27.3753C83.3382 26.5646 83.15 25.7121 82.77 24.8178C82.3902 23.8809 81.9881 23.1573 81.5638 22.6472L80.9909 21.9457L81.0586 21.1134C83.0668 20.4647 86.6096 20.1292 91.6868 20.107C92.1522 21.001 92.4452 22.2583 92.5659 23.8791C95.8633 21.1768 98.5999 19.8209 100.776 19.8113C102.995 19.8017 104.761 20.7113 106.076 22.5401C107.433 24.3688 108.103 27.0538 108.087 30.5951C108.06 36.7817 106.908 41.3946 104.634 44.4338C102.359 47.4303 99.4936 48.9361 96.0377 48.9512C94.2457 48.959 92.7535 48.7095 91.5611 48.2028L90.9223 47.9495L91.3815 45.4516C91.7651 45.5353 92.2129 45.576 92.7249 45.5737C93.8342 45.5689 94.7965 45.0527 95.6117 44.0252C96.4696 42.9975 97.1154 41.6934 97.5492 40.1128C98.4166 36.9518 98.8564 34.0273 98.8684 31.3393C98.8856 27.4994 98.1048 25.5828 96.5262 25.5897C95.2888 25.5951 93.964 26.0916 92.5516 27.079C92.3676 30.0664 91.4696 35.2969 89.8575 42.7704C88.2454 50.2438 87.4292 56.2632 87.4088 60.8285C85.1006 61.7772 82.1327 62.3662 78.5051 62.5953ZM109.005 62.4622C108.794 61.9511 108.692 60.8209 108.7 59.0716C108.708 57.3223 109.561 52.6254 111.259 44.9808C112.957 37.2936 113.816 31.3807 113.834 27.2421C113.838 26.4314 113.65 25.579 113.27 24.6846C112.89 23.7477 112.488 23.0241 112.063 22.514L111.491 21.8125L111.558 20.9802C113.567 20.3315 117.109 19.996 122.187 19.9738C122.652 20.8678 122.945 22.1251 123.066 23.7459C126.363 21.0436 129.1 19.6877 131.276 19.6782C133.494 19.6685 135.261 20.5781 136.575 22.4069C137.932 24.2356 138.603 26.9206 138.587 30.4619C138.559 36.6485 137.408 41.2614 135.133 44.3006C132.859 47.2971 129.993 48.8029 126.537 48.818C124.745 48.8258 123.253 48.5763 122.061 48.0696L121.422 47.8164L121.881 45.3184C122.265 45.4021 122.713 45.4428 123.225 45.4406C124.334 45.4357 125.296 44.9195 126.111 43.892C126.969 42.8643 127.615 41.5602 128.049 39.9797C128.916 36.8186 129.356 33.8941 129.368 31.2062C129.385 27.3662 128.605 25.4497 127.026 25.4566C125.789 25.462 124.464 25.9584 123.051 26.9459C122.867 29.9332 121.969 35.1637 120.357 42.6372C118.745 50.1107 117.929 56.13 117.908 60.6953C115.6 61.644 112.632 62.233 109.005 62.4622ZM146.991 48.2167C143.45 48.2322 141.688 46.2772 141.706 42.352C141.71 41.4133 142.149 38.7021 143.022 34.2184C143.896 29.7348 144.339 25.9996 144.352 23.013C144.355 22.373 144.273 21.776 144.104 21.2221C146.412 20.316 149.572 19.8543 153.582 19.8368C153.793 20.4331 153.895 21.4567 153.889 22.9073C153.882 24.358 153.4 27.2613 152.442 31.6174C151.483 35.9734 151.001 38.8128 150.996 40.1354C150.99 41.4581 151.328 42.1179 152.011 42.115C153.888 42.1068 155.704 41.4375 157.459 40.1072C157.595 38.528 158.477 32.103 160.106 20.8322C161.602 20.2284 164.291 19.918 168.174 19.901L169.39 19.8957C168.869 21.9033 167.993 26.9843 166.761 35.1387C165.573 43.2504 164.718 48.3953 164.196 50.5735C163.675 52.7517 162.962 54.6748 162.059 56.3427C161.198 58.0104 160.126 59.2523 158.842 60.0686C157.601 60.9273 156.34 61.5088 155.058 61.8131C153.777 62.1173 152.112 62.2739 150.064 62.2829C148.059 62.2916 146.142 61.6387 144.313 60.324C142.527 59.0519 141.636 57.9465 141.64 57.0078C141.643 56.4105 142.394 55.4899 143.893 54.2461C145.434 53.002 146.718 52.2284 147.743 51.9253C149.909 54.0918 151.498 56.4528 152.511 59.0083C153.62 59.0034 154.608 57.6765 155.473 55.0275C156.338 52.3784 156.931 48.4933 157.253 43.372C156.224 44.4005 154.662 45.4739 152.567 46.5924C150.471 47.6682 148.613 48.2096 146.991 48.2167ZM206.9 21.5239C208.224 21.2194 209.508 20.2325 210.753 18.5631C211.998 16.8938 212.625 14.8217 212.637 12.3471C212.648 9.82979 211.76 7.99905 209.973 6.85489C208.229 5.71054 205.522 5.14637 201.853 5.1624C196.392 5.18624 191.907 6.25113 188.399 8.35705C184.934 10.4628 183.196 12.7103 183.185 15.0996C183.18 16.3369 183.644 17.3376 184.58 18.1014C185.515 18.8227 186.451 19.3092 187.389 19.5611C187.254 21.2257 186.67 22.8068 185.64 24.3046C183.977 24.0132 182.445 23.1453 181.044 21.7008C179.642 20.2136 178.947 18.2967 178.957 15.9501C178.976 11.7688 181.317 8.30265 185.98 5.5517C190.643 2.75809 196.665 1.34516 204.046 1.31293C209.721 1.28815 214.218 2.16449 217.538 3.94194C220.858 5.71939 222.51 8.46409 222.493 12.1761C222.48 15.0774 221.467 17.4924 219.453 19.4211C217.439 21.3499 214.872 22.8117 211.753 23.8066C214.866 24.2623 217.335 25.4249 219.161 27.2942C222.579 26.3833 225.738 25.9215 228.639 25.9088L231.775 26.0871C231.859 26.3854 231.9 26.6839 231.899 26.9825C231.892 28.4759 231.673 29.6501 231.243 30.5053C230.092 30.2543 228.535 30.1331 226.573 30.1417C224.653 30.1501 222.924 30.3923 221.385 30.8683C221.933 32.4446 222.203 34.1287 222.195 35.9207C222.175 40.2726 220.858 43.8623 218.243 46.6896C215.627 49.5169 212.635 50.938 209.264 50.9527C206.96 50.9627 205.043 50.2671 203.513 48.8659C201.984 47.5072 201.224 45.5266 201.236 42.924C201.248 40.2787 202.219 37.7785 204.15 35.4235C206.123 33.0256 208.521 31.1378 211.343 29.7602C210.246 26.9064 208.269 25.4858 205.41 25.4983L204.962 25.5002C204.711 24.392 204.781 23.1331 205.171 21.7234C205.811 21.7206 206.387 21.6541 206.9 21.5239ZM194.515 14.6022C194.519 13.7915 194.415 13.1946 194.203 12.8116C194.034 12.4283 193.631 11.8754 192.994 11.1529L193.06 10.7046C195.328 9.3721 198.147 8.69848 201.517 8.68376C202.84 8.67798 203.821 8.78036 204.46 8.9909C204.671 9.41663 204.774 10.3335 204.767 11.7415C204.761 13.1068 203.629 18.2529 201.371 27.1799C199.155 36.0639 197.845 42.6828 197.442 47.0364C194.921 47.7727 192.125 48.1476 189.053 48.161C188.328 48.1642 187.795 48.1025 187.454 47.976C187.679 45.2871 188.899 39.6926 191.113 31.1925C193.369 22.6923 194.504 17.1621 194.515 14.6022ZM207.752 45.5194C208.904 45.5144 209.933 44.4646 210.838 42.3701C211.744 40.2328 212.202 37.8416 212.214 35.1963L212.155 34.1086C210.574 34.7128 209.054 35.8074 207.597 37.3924C206.182 38.9772 205.47 40.6656 205.462 42.4575C205.457 43.5242 205.688 44.3125 206.155 44.8224C206.665 45.2895 207.198 45.5219 207.752 45.5194ZM246.739 21.0299C246.825 20.9442 247.062 20.3885 247.451 19.3629C249.456 19.3541 252.141 19.9397 255.507 21.1196C254.424 24.6656 253.554 28.3813 252.897 32.2667C252.24 36.1095 251.907 38.8628 251.9 40.5268C251.893 42.1481 252.06 42.958 252.401 42.9565C252.657 42.9554 253.597 42.546 255.222 41.7283L255.992 41.3409L257.134 43.5759C256.749 43.9189 256.235 44.3478 255.592 44.8626C254.993 45.3772 253.838 46.0862 252.127 46.9896C250.416 47.8504 248.879 48.2838 247.513 48.2897C244.868 48.3013 243.337 47.1133 242.921 44.7259C240.18 47.1271 237.7 48.3326 235.481 48.3423C233.305 48.3518 231.453 47.5066 229.925 45.8066C228.439 44.1065 227.705 41.4218 227.721 37.7525C227.747 32.0352 228.94 27.5288 231.301 24.2332C233.663 20.895 236.508 19.2187 239.836 19.2041C242.225 19.1937 244.526 19.8023 246.739 21.0299ZM239.346 42.8856C240.37 42.8811 241.523 42.4707 242.807 41.6545C243.133 35.6372 244.162 29.6809 245.895 23.7855C244.617 23.2365 243.531 22.9639 242.635 22.9678C241.099 22.9745 239.769 24.4949 238.646 27.5291C237.566 30.5204 237.018 33.8293 237.002 37.456C236.986 41.0826 237.767 42.8925 239.346 42.8856ZM265.719 5.2035C265.726 3.79552 265.602 2.79342 265.349 2.19721C268.682 1.03069 271.821 0.441 274.765 0.428144C275.147 0.810464 275.334 1.79095 275.327 3.3696C275.312 6.9109 274.108 13.7 271.716 23.7368C275.528 20.6055 279.289 19.0318 283.001 19.0156C284.665 19.0084 286.071 19.5142 287.218 20.5332C288.366 21.5521 288.935 23.0429 288.926 25.0056C288.91 28.6749 285.89 31.3546 279.866 33.0449C281.255 37.476 282.478 40.4786 283.538 42.0526C284.004 42.7332 284.344 43.0731 284.557 43.0721C285.027 43.0701 286.01 42.7031 287.506 41.9713L288.212 41.6482L289.226 43.8197C288.198 44.7628 286.764 45.7291 284.925 46.7184C283.129 47.6649 281.484 48.1414 279.991 48.1479C276.663 48.1624 274.351 45.1433 273.056 39.0905C272.47 36.4904 272.118 34.06 272 31.7993C274.734 31.1474 276.764 30.3705 278.091 29.4688C279.46 28.5241 280.148 27.3478 280.154 25.9399C280.161 24.4892 279.439 23.767 277.988 23.7734C276.537 23.7797 274.099 25.241 270.673 28.1572C268.499 37.1691 267.405 43.339 267.39 46.667C265.04 47.3599 261.988 47.7145 258.233 47.7309C258.194 47.0058 258.176 46.3659 258.178 45.8112C258.186 43.9766 259.43 37.6993 261.91 26.9795C264.433 16.2595 265.702 9.0008 265.719 5.2035ZM290.592 36.262C290.616 30.9287 292.234 26.7191 295.448 23.6331C298.705 20.5043 302.381 18.931 306.477 18.9131C308.994 18.9021 311.061 19.5117 312.677 20.742C314.292 21.9722 315.096 23.6327 315.086 25.7233C315.077 27.7713 314.536 29.5016 313.463 30.9143C312.433 32.3267 311.169 33.4202 309.672 34.1947C306.636 35.7013 303.859 36.652 301.34 37.047L299.803 37.2457C300.084 41.255 301.718 43.2532 304.704 43.2401C305.728 43.2357 306.817 42.9749 307.972 42.4579C309.126 41.9409 310.024 41.425 310.666 40.9102L311.63 40.138L313.157 42.1793C312.813 42.6501 312.128 43.2717 311.1 44.0442C310.073 44.8166 309.11 45.4608 308.212 45.9767C305.731 47.3529 303.019 48.0474 300.075 48.0602C297.131 48.0731 294.81 47.0379 293.113 44.9547C291.416 42.8715 290.575 39.9739 290.592 36.262ZM299.753 34.11C301.931 33.7165 303.663 32.7917 304.949 31.3354C306.236 29.8792 306.884 27.9991 306.895 25.6951C306.905 23.3911 306.227 22.2421 304.862 22.2481C303.241 22.2551 301.976 23.6473 301.067 26.4245C300.202 29.1589 299.764 31.7207 299.753 34.11ZM317.64 47.4075L317.192 47.4095C317.108 47.0685 317.069 46.3007 317.074 45.1061C317.079 43.8687 317.67 40.5809 318.846 35.2426C320.022 29.9043 320.612 26.8512 320.615 26.0832C320.621 24.7605 320.03 23.3125 318.842 21.739L318.27 20.9736L318.338 20.1413C320.644 19.4912 324.337 19.1551 329.414 19.1329C329.921 20.24 330.17 21.7962 330.161 23.8015C330.634 23.0315 331.62 22.0032 333.119 20.7167C334.618 19.4302 336.156 18.7835 337.735 18.7766C340.039 18.7666 341.182 20.7668 341.164 24.7775C340.95 25.0344 340.65 25.377 340.264 25.8054C339.921 26.1909 339.193 26.7487 338.08 27.4789C337.01 28.2088 335.963 28.6614 334.938 28.8365C334.896 28.8367 334.535 28.2623 333.858 27.1133C333.18 25.9643 332.671 25.3905 332.33 25.392C331.261 25.7807 330.32 26.4248 329.505 27.3243C327.503 36.1648 326.496 41.8864 326.484 44.489C326.48 45.4276 326.499 46.0889 326.54 46.4727C325.044 47.0765 322.077 47.3882 317.64 47.4075ZM344.74 47.3532C341.198 47.3687 339.436 45.4137 339.454 41.4884C339.458 40.5498 339.897 37.8386 340.77 33.3549C341.644 28.8713 342.087 25.1361 342.1 22.1495C342.103 21.5095 342.021 20.9125 341.852 20.3586C344.16 19.4525 347.32 18.9908 351.33 18.9732C351.541 19.5696 351.643 20.5932 351.637 22.0438C351.63 23.4945 351.148 26.3978 350.19 30.7539C349.232 35.1099 348.75 37.9493 348.744 39.2719C348.738 40.5946 349.076 41.2544 349.759 41.2515C351.636 41.2433 353.452 40.574 355.208 39.2437C355.343 37.6645 356.225 31.2395 357.854 19.9687C359.35 19.3649 362.039 19.0545 365.922 19.0375L367.138 19.0322C366.617 21.0398 365.741 26.1208 364.51 34.2752C363.321 42.3869 362.466 47.5318 361.945 49.71C361.423 51.8882 360.71 53.8113 359.807 55.4792C358.946 57.1469 357.874 58.3888 356.59 59.2051C355.349 60.0638 354.088 60.6453 352.807 60.9496C351.525 61.2538 349.861 61.4104 347.813 61.4194C345.807 61.4281 343.89 60.7752 342.061 59.4605C340.275 58.1884 339.384 57.083 339.388 56.1443C339.391 55.547 340.142 54.6264 341.641 53.3825C343.182 52.1385 344.466 51.3649 345.491 51.0618C347.657 53.2283 349.247 55.5893 350.259 58.1448C351.368 58.1399 352.356 56.813 353.221 54.164C354.086 51.5149 354.679 47.6298 355.001 42.5085C353.972 43.537 352.41 44.6104 350.315 45.7289C348.219 46.8047 346.361 47.3461 344.74 47.3532Z" fill="#1E1E1E"/>
</svg>
